<svg width="344" height="53" viewBox="0 0 344 53" fill="none" xmlns="http://www.w3.org/2000/svg">
<path d="M35.998 47.808V11.808H42.094V13.776C43.966 11.904 46.318 10.848 49.63 10.848C57.31 10.848 61.918 16.848 61.918 23.904C61.918 30.96 57.31 36.96 49.63 36.96C46.318 36.96 43.966 35.904 42.094 34.032V47.808H35.998ZM48.766 16.608C45.934 16.608 43.63 17.856 42.094 20.112V27.696C43.726 30 45.982 31.2 48.766 31.2C52.894 31.2 55.582 28.128 55.582 23.904C55.582 19.68 52.894 16.608 48.766 16.608Z" fill="#000091"/>
<path d="M72.3115 36.72C67.4635 36.72 64.1515 33.936 64.1515 29.472C64.1515 25.824 66.9835 23.088 72.1675 22.224L79.5595 20.976V20.352C79.5595 17.808 77.6395 16.176 74.8555 16.176C72.5035 16.176 70.6795 17.28 69.3835 19.056L64.9195 15.648C67.0795 12.672 70.6315 10.848 75.0475 10.848C82.0555 10.848 85.6555 15.024 85.6555 20.352V36H79.5595V33.648C78.0235 35.52 75.1435 36.72 72.3115 36.72ZM70.1995 29.184C70.1995 30.816 71.4955 31.872 73.5595 31.872C76.3435 31.872 78.3595 30.576 79.5595 28.656V25.248L73.7995 26.208C71.2555 26.64 70.1995 27.696 70.1995 29.184Z" fill="#000091"/>
<path d="M91.1961 36V11.808H97.2921V14.208C98.8761 12.576 100.94 11.328 103.676 11.328C104.492 11.328 105.212 11.472 105.788 11.664V17.664C105.02 17.472 104.204 17.328 103.1 17.328C100.124 17.328 98.2041 18.96 97.2921 20.496V36H91.1961Z" fill="#000091"/>
<path d="M119.841 31.2C122.241 31.2 124.161 30.096 125.313 28.416L130.065 32.064C127.809 35.04 124.257 36.96 119.841 36.96C111.489 36.96 106.497 30.96 106.497 23.904C106.497 16.848 111.489 10.848 119.841 10.848C124.257 10.848 127.809 12.768 130.065 15.744L125.313 19.392C124.161 17.712 122.241 16.608 119.745 16.608C115.761 16.608 112.833 19.68 112.833 23.904C112.833 28.176 115.761 31.2 119.841 31.2Z" fill="#000091"/>
<path d="M143.758 10.848C151.63 10.848 157.006 16.656 157.006 23.904C157.006 31.152 151.63 36.96 143.758 36.96C135.886 36.96 130.51 31.152 130.51 23.904C130.51 16.656 135.886 10.848 143.758 10.848ZM143.854 31.2C147.742 31.2 150.67 28.08 150.67 23.904C150.67 19.68 147.742 16.608 143.854 16.608C139.822 16.608 136.846 19.68 136.846 23.904C136.846 28.128 139.822 31.2 143.854 31.2Z" fill="#000091"/>
<path d="M177.062 25.536V11.808H183.206V25.248C183.206 32.496 178.982 36.96 171.878 36.96C164.774 36.96 160.598 32.496 160.598 25.248V11.808H166.742V25.536C166.742 29.04 168.566 31.2 171.926 31.2C175.238 31.2 177.062 29.04 177.062 25.536Z" fill="#000091"/>
<path d="M188.514 36V11.808H194.61V14.208C196.194 12.576 198.258 11.328 200.994 11.328C201.81 11.328 202.53 11.472 203.106 11.664V17.664C202.338 17.472 201.522 17.328 200.418 17.328C197.442 17.328 195.522 18.96 194.61 20.496V36H188.514Z" fill="#000091"/>
<path d="M204.462 32.496L208.494 28.848C209.982 30.72 211.758 32.064 214.062 32.064C216.03 32.064 217.038 30.912 217.038 29.472C217.038 25.248 205.47 26.832 205.47 18.336C205.47 14.064 209.07 10.848 214.11 10.848C217.806 10.848 221.166 12.624 222.894 14.976L218.862 18.528C217.614 16.992 216.03 15.744 214.158 15.744C212.238 15.744 211.326 16.8 211.326 18.048C211.326 22.176 222.894 20.736 222.894 29.088C222.798 34.176 218.718 36.96 214.158 36.96C209.838 36.96 206.766 35.232 204.462 32.496Z" fill="#E1000F"/>
<path d="M249.25 32.064C246.994 35.088 243.25 36.96 238.69 36.96C230.098 36.96 225.25 30.96 225.25 23.904C225.25 16.752 229.762 10.848 237.682 10.848C244.402 10.848 248.818 15.408 248.818 21.744C248.818 23.088 248.626 24.336 248.434 25.152H231.49C232.066 29.664 234.85 31.488 238.642 31.488C241.282 31.488 243.586 30.336 244.882 28.608L249.25 32.064ZM237.538 15.84C234.418 15.84 232.354 17.568 231.682 20.736H242.818C242.722 18.288 240.946 15.84 237.538 15.84Z" fill="#E1000F"/>
<path d="M259.823 36.72C254.975 36.72 251.663 33.936 251.663 29.472C251.663 25.824 254.495 23.088 259.679 22.224L267.071 20.976V20.352C267.071 17.808 265.151 16.176 262.367 16.176C260.015 16.176 258.191 17.28 256.895 19.056L252.431 15.648C254.591 12.672 258.143 10.848 262.559 10.848C269.567 10.848 273.167 15.024 273.167 20.352V36H267.071V33.648C265.535 35.52 262.655 36.72 259.823 36.72ZM257.711 29.184C257.711 30.816 259.007 31.872 261.071 31.872C263.855 31.872 265.871 30.576 267.071 28.656V25.248L261.311 26.208C258.767 26.64 257.711 27.696 257.711 29.184Z" fill="#E1000F"/>
<path d="M278.707 36V11.808H284.803V14.208C286.387 12.576 288.451 11.328 291.187 11.328C292.003 11.328 292.723 11.472 293.299 11.664V17.664C292.531 17.472 291.715 17.328 290.611 17.328C287.635 17.328 285.715 18.96 284.803 20.496V36H278.707Z" fill="#E1000F"/>
<path d="M307.352 31.2C309.752 31.2 311.672 30.096 312.824 28.416L317.576 32.064C315.32 35.04 311.768 36.96 307.352 36.96C299 36.96 294.008 30.96 294.008 23.904C294.008 16.848 299 10.848 307.352 10.848C311.768 10.848 315.32 12.768 317.576 15.744L312.824 19.392C311.672 17.712 309.752 16.608 307.256 16.608C303.272 16.608 300.344 19.68 300.344 23.904C300.344 28.176 303.272 31.2 307.352 31.2Z" fill="#E1000F"/>
<path d="M320.687 36V0H326.783V13.728C328.463 12.096 330.719 10.848 333.935 10.848C339.167 10.848 343.343 14.448 343.343 21.6V36H337.199V21.84C337.199 18.624 335.423 16.608 332.399 16.608C329.327 16.608 327.695 18.672 326.783 20.208V36H320.687Z" fill="#E1000F"/>
<path fill-rule="evenodd" clip-rule="evenodd" d="M0 37C0 35.3155 1.36553 33.95 3.05 33.95H15.05C16.7345 33.95 18.1 35.3155 18.1 37V49C18.1 50.6845 16.7345 52.05 15.05 52.05C13.3655 52.05 12 50.6845 12 49V40.05H3.05C1.36553 40.05 0 38.6845 0 37Z" fill="#E1000F"/>
<path fill-rule="evenodd" clip-rule="evenodd" d="M12 25C12 23.3155 13.3655 21.95 15.05 21.95H27.05C28.7345 21.95 30.1 23.3155 30.1 25V37C30.1 38.6845 28.7345 40.05 27.05 40.05C25.3655 40.05 24 38.6845 24 37V28.05H15.05C13.3655 28.05 12 26.6845 12 25Z" fill="#000091"/>
<path fill-rule="evenodd" clip-rule="evenodd" d="M24 13C24 11.3155 25.3655 9.95001 27.05 9.95001H39.05C40.7345 9.95001 42.1 11.3155 42.1 13V25C42.1 26.6845 40.7345 28.05 39.05 28.05C37.3655 28.05 36 26.6845 36 25V16.05H27.05C25.3655 16.05 24 14.6845 24 13Z" fill="#E1000F"/>
</svg>
